<svg width="32" height="32" viewBox="0 0 32 32" fill="none" xmlns="http://www.w3.org/2000/svg">
<path d="M2.08696 13.913C0.934372 13.913 0 14.8474 0 16C0 17.1526 0.934372 18.087 2.08696 18.087V13.913ZM16 18.087C17.1526 18.087 18.087 17.1526 18.087 16C18.087 14.8474 17.1526 13.913 16 13.913V18.087ZM16 13.913C14.8474 13.913 13.913 14.8474 13.913 16C13.913 17.1526 14.8474 18.087 16 18.087V13.913ZM29.913 18.087C31.0656 18.087 32 17.1526 32 16C32 14.8474 31.0656 13.913 29.913 13.913V18.087ZM18.087 16C18.087 14.8474 17.1526 13.913 16 13.913C14.8474 13.913 13.913 14.8474 13.913 16H18.087ZM13.913 29.913C13.913 31.0656 14.8474 32 16 32C17.1526 32 18.087 31.0656 18.087 29.913H13.913ZM13.913 16C13.913 17.1526 14.8474 18.087 16 18.087C17.1526 18.087 18.087 17.1526 18.087 16H13.913ZM18.087 2.08696C18.087 0.934372 17.1526 0 16 0C14.8474 0 13.913 0.934372 13.913 2.08696H18.087ZM2.08696 18.087H16V13.913H2.08696V18.087ZM16 18.087H29.913V13.913H16V18.087ZM16 16H13.913V16.0028V16.0061V16.0095V16.0122V16.0153V16.0181V16.0214V16.0248V16.0284V16.0312V16.0339V16.037V16.0403V16.0437V16.0473V16.0512V16.0551V16.0593V16.0637V16.0682V16.0732V16.0782V16.0835V16.0888V16.0918V16.0946V16.0977V16.1005V16.1038V16.1069V16.1099V16.1133V16.1166V16.1199V16.1235V16.1269V16.1305V16.1341V16.138V16.1416V16.1455V16.1497V16.1536V16.1578V16.1617V16.1661V16.1703V16.1747V16.1792V16.1837V16.1881V16.1928V16.1976V16.2026V16.2073V16.2123V16.2173V16.2226V16.2276V16.2329V16.2385V16.2438V16.2493V16.2552V16.2607V16.2666V16.2724V16.2783V16.2844V16.2905V16.2969V16.303V16.3094V16.3161V16.3225V16.3292V16.3361V16.3428C13.913 16.3453 13.913 16.3498 13.913 16.3498C13.913 16.3523 13.913 16.3545 13.913 16.357V16.364C13.913 16.3665 13.913 16.3712 13.913 16.3712C13.913 16.3737 13.913 16.3762 13.913 16.3787C13.913 16.3787 13.913 16.3834 13.913 16.3859C13.913 16.3885 13.913 16.391 13.913 16.3935C13.913 16.396 13.913 16.3985 13.913 16.4013C13.913 16.4038 13.913 16.4063 13.913 16.4088C13.913 16.4115 13.913 16.4141 13.913 16.4166C13.913 16.4193 13.913 16.4218 13.913 16.4246C13.913 16.4271 13.913 16.4299 13.913 16.4327C13.913 16.4352 13.913 16.438 13.913 16.4408C13.913 16.4435 13.913 16.4461 13.913 16.4488C13.913 16.4516 13.913 16.4544 13.913 16.4572C13.913 16.46 13.913 16.4627 13.913 16.4655C13.913 16.4686 13.913 16.4714 13.913 16.4742C13.913 16.4769 13.913 16.48 13.913 16.4828C13.913 16.4856 13.913 16.4886 13.913 16.4914C13.913 16.4945 13.913 16.4973 13.913 16.5003C13.913 16.5034 13.913 16.5062 13.913 16.5092C13.913 16.5123 13.913 16.5153 13.913 16.5184C13.913 16.5215 13.913 16.5245 13.913 16.5276C13.913 16.5306 13.913 16.5337 13.913 16.5368C13.913 16.5398 13.913 16.5429 13.913 16.5459C13.913 16.5493 13.913 16.5523 13.913 16.5557C13.913 16.5587 13.913 16.5618 13.913 16.5651C13.913 16.5682 13.913 16.5715 13.913 16.5749C13.913 16.5779 13.913 16.5813 13.913 16.5846C13.913 16.588 13.913 16.5913 13.913 16.5946C13.913 16.598 13.913 16.6013 13.913 16.6047C13.913 16.608 13.913 16.6113 13.913 16.6147C13.913 16.618 13.913 16.6214 13.913 16.625C13.913 16.6283 13.913 16.6319 13.913 16.6353C13.913 16.6389 13.913 16.6422 13.913 16.6458C13.913 16.6492 13.913 16.6528 13.913 16.6564C13.913 16.6598 13.913 16.6634 13.913 16.667C13.913 16.6706 13.913 16.6742 13.913 16.6778C13.913 16.6815 13.913 16.6851 13.913 16.6887C13.913 16.6923 13.913 16.6962 13.913 16.6998C13.913 16.7034 13.913 16.7073 13.913 16.711C13.913 16.7149 13.913 16.7185 13.913 16.7224C13.913 16.726 13.913 16.7299 13.913 16.7338C13.913 16.7374 13.913 16.7413 13.913 16.7452C13.913 16.7491 13.913 16.753 13.913 16.7569C13.913 16.7608 13.913 16.7647 13.913 16.7686C13.913 16.7725 13.913 16.7766 13.913 16.7805C13.913 16.7844 13.913 16.7886 13.913 16.7925C13.913 16.7967 13.913 16.8006 13.913 16.8047C13.913 16.8086 13.913 16.8128 13.913 16.817C13.913 16.8211 13.913 16.825 13.913 16.8292C13.913 16.8334 13.913 16.8376 13.913 16.8417C13.913 16.8459 13.913 16.8501 13.913 16.8545C13.913 16.8587 13.913 16.8629 13.913 16.8671C13.913 16.8715 13.913 16.8757 13.913 16.8801C13.913 16.8843 13.913 16.8888 13.913 16.8929C13.913 16.8974 13.913 16.9018 13.913 16.9063C13.913 16.9105 13.913 16.9149 13.913 16.9194C13.913 16.9238 13.913 16.9283 13.913 16.9327C13.913 16.9372 13.913 16.9419 13.913 16.9464C13.913 16.9508 13.913 16.9555 13.913 16.96C13.913 16.9645 13.913 16.9692 13.913 16.9739C13.913 16.9784 13.913 16.9831 13.913 16.9878C13.913 16.9923 13.913 16.997 13.913 17.0017C13.913 17.0065 13.913 17.0112 13.913 17.0159C13.913 17.0207 13.913 17.0254 13.913 17.0301C13.913 17.0351 13.913 17.0399 13.913 17.0446C13.913 17.0496 13.913 17.0543 13.913 17.0593C13.913 17.0641 13.913 17.0691 13.913 17.0738C13.913 17.0788 13.913 17.0838 13.913 17.0888C13.913 17.0938 13.913 17.0989 13.913 17.1039C13.913 17.1089 13.913 17.1139 13.913 17.1189C13.913 17.1239 13.913 17.1289 13.913 17.1342C13.913 17.1392 13.913 17.1445 13.913 17.1495C13.913 17.1548 13.913 17.1598 13.913 17.1651C13.913 17.1704 13.913 17.1754 13.913 17.1807C13.913 17.1859 13.913 17.1912 13.913 17.1965C13.913 17.2018 13.913 17.2071 13.913 17.2127C13.913 17.2179 13.913 17.2232 13.913 17.2285C13.913 17.2341 13.913 17.2394 13.913 17.2449C13.913 17.2502 13.913 17.2558 13.913 17.2614C13.913 17.2666 13.913 17.2722 13.913 17.2778C13.913 17.2833 13.913 17.2889 13.913 17.2945C13.913 17.3 13.913 17.3056 13.913 17.3112C13.913 17.3167 13.913 17.3226 13.913 17.3281C13.913 17.334 13.913 17.3395 13.913 17.3454C13.913 17.351 13.913 17.3568 13.913 17.3626C13.913 17.3682 13.913 17.3741 13.913 17.3799C13.913 17.3857 13.913 17.3916 13.913 17.3974C13.913 17.4033 13.913 17.4091 13.913 17.4152C13.913 17.4211 13.913 17.4269 13.913 17.433C13.913 17.4389 13.913 17.445 13.913 17.4509C13.913 17.457 13.913 17.4631 13.913 17.4692C13.913 17.4751 13.913 17.4812 13.913 17.4873C13.913 17.4934 13.913 17.4995 13.913 17.5059C13.913 17.5121 13.913 17.5182 13.913 17.5243C13.913 17.5307 13.913 17.5368 13.913 17.5432C13.913 17.5494 13.913 17.5558 13.913 17.5622C13.913 17.5683 13.913 17.5747 13.913 17.5811C13.913 17.5875 13.913 17.5939 13.913 17.6003C13.913 17.6067 13.913 17.6131 13.913 17.6198C13.913 17.6262 13.913 17.6326 13.913 17.6392C13.913 17.6456 13.913 17.6523 13.913 17.659C13.913 17.6654 13.913 17.6721 13.913 17.6787C13.913 17.6854 13.913 17.6921 13.913 17.6988C13.913 17.7055 13.913 17.7121 13.913 17.7188C13.913 17.7255 13.913 17.7325 13.913 17.7391C13.913 17.7458 13.913 17.7528 13.913 17.7597C13.913 17.7664 13.913 17.7734 13.913 17.7803C13.913 17.787 13.913 17.7939 13.913 17.8009C13.913 17.8079 13.913 17.8148 13.913 17.8221C13.913 17.829 13.913 17.836 13.913 17.8429C13.913 17.8502 13.913 17.8571 13.913 17.8643C13.913 17.8713 13.913 17.8785 13.913 17.8858C13.913 17.893 13.913 17.9 13.913 17.9072C13.913 17.9144 13.913 17.9217 13.913 17.9292C13.913 17.9364 13.913 17.9437 13.913 17.9509C13.913 17.9584 13.913 17.9656 13.913 17.9731C13.913 17.9804 13.913 17.9879 13.913 17.9954C13.913 18.0029 13.913 18.0102 13.913 18.0177C13.913 18.0252 13.913 18.0327 13.913 18.0402C13.913 18.048 13.913 18.0555 13.913 18.063C13.913 18.0708 13.913 18.0783 13.913 18.0861C13.913 18.0936 13.913 18.1014 13.913 18.1092C13.913 18.1167 13.913 18.1245 13.913 18.1323C13.913 18.1401 13.913 18.1479 13.913 18.1557C13.913 18.1638 13.913 18.1715 13.913 18.1793C13.913 18.1874 13.913 18.1952 13.913 18.2033C13.913 18.2111 13.913 18.2191 13.913 18.2272C13.913 18.2353 13.913 18.2431 13.913 18.2511C13.913 18.2592 13.913 18.2675 13.913 18.2756C13.913 18.2837 13.913 18.2918 13.913 18.3001C13.913 18.3082 13.913 18.3165 13.913 18.3246C13.913 18.3329 13.913 18.3413 13.913 18.3494C13.913 18.3577 13.913 18.3661 13.913 18.3744C13.913 18.3827 13.913 18.3911 13.913 18.3997C13.913 18.4081 13.913 18.4164 13.913 18.425C13.913 18.4334 13.913 18.442 13.913 18.4506C13.913 18.459 13.913 18.4676 13.913 18.4762C13.913 18.4849 13.913 18.4935 13.913 18.5021C13.913 18.5107 13.913 18.5194 13.913 18.5283C13.913 18.5369 13.913 18.5455 13.913 18.5544C13.913 18.5631 13.913 18.572 13.913 18.5809C13.913 18.5898 13.913 18.5987 13.913 18.6076C13.913 18.6162 13.913 18.6254 13.913 18.6343C13.913 18.6432 13.913 18.6521 13.913 18.6613C13.913 18.6702 13.913 18.6794 13.913 18.6883C13.913 18.6975 13.913 18.7066 13.913 18.7158C13.913 18.7247 13.913 18.7339 13.913 18.7431C13.913 18.7526 13.913 18.7617 13.913 18.7709C13.913 18.7801 13.913 18.7896 13.913 18.7987C13.913 18.8082 13.913 18.8174 13.913 18.8269C13.913 18.8363 13.913 18.8458 13.913 18.8552C13.913 18.8647 13.913 18.8742 13.913 18.8836C13.913 18.8931 13.913 18.9028 13.913 18.9123C13.913 18.9217 13.913 18.9315 13.913 18.9412C13.913 18.9507 13.913 18.9604 13.913 18.9702C13.913 18.9799 13.913 18.9896 13.913 18.9994C13.913 19.0091 13.913 19.0189 13.913 19.0289C13.913 19.0386 13.913 19.0483 13.913 19.0584C13.913 19.0684 13.913 19.0781 13.913 19.0881C13.913 19.0982 13.913 19.1082 13.913 19.1182C13.913 19.1282 13.913 19.1382 13.913 19.1482C13.913 19.1583 13.913 19.1686 13.913 19.1786C13.913 19.1889 13.913 19.1989 13.913 19.2092C13.913 19.2195 13.913 19.2298 13.913 19.2401C13.913 19.2504 13.913 19.2607 13.913 19.271C13.913 19.2813 13.913 19.2915 13.913 19.3021C13.913 19.3124 13.913 19.323 13.913 19.3336C13.913 19.3439 13.913 19.3544 13.913 19.365C13.913 19.3756 13.913 19.3862 13.913 19.3967C13.913 19.4073 13.913 19.4179 13.913 19.4287C13.913 19.4393 13.913 19.4502 13.913 19.4607C13.913 19.4716 13.913 19.4824 13.913 19.4933C13.913 19.5039 13.913 19.5147 13.913 19.5258C13.913 19.5367 13.913 19.5475 13.913 19.5584C13.913 19.5695 13.913 19.5804 13.913 19.5915C13.913 19.6024 13.913 19.6135 13.913 19.6246C13.913 19.6358 13.913 19.6469 13.913 19.658C13.913 19.6691 13.913 19.6803 13.913 19.6914C13.913 19.7028 13.913 19.714 13.913 19.7254C13.913 19.7365 13.913 19.7479 13.913 19.7593C13.913 19.7704 13.913 19.7818 13.913 19.7933C13.913 19.8049 13.913 19.8163 13.913 19.8278C13.913 19.8392 13.913 19.8509 13.913 19.8623C13.913 19.8739 13.913 19.8856 13.913 19.897C13.913 19.9087 13.913 19.9204 13.913 19.9321C13.913 19.9438 13.913 19.9555 13.913 19.9674C13.913 19.9791 13.913 19.9908 13.913 20.0028C13.913 20.0147 13.913 20.0264 13.913 20.0384C13.913 20.0504 13.913 20.0623 13.913 20.0743C13.913 20.0863 13.913 20.0982 13.913 20.1102C13.913 20.1224 13.913 20.1344 13.913 20.1466C13.913 20.1586 13.913 20.1709 13.913 20.1831C13.913 20.1953 13.913 20.2076 13.913 20.2198C13.913 20.2321 13.913 20.2443 13.913 20.2566C13.913 20.2691 13.913 20.2813 13.913 20.2938C13.913 20.3061 13.913 20.3186 13.913 20.3311C13.913 20.3437 13.913 20.3562 13.913 20.3687C13.913 20.3812 13.913 20.3937 13.913 20.4065C13.913 20.4191 13.913 20.4319 13.913 20.4444C13.913 20.4572 13.913 20.47 13.913 20.4825C13.913 20.4953 13.913 20.5081 13.913 20.5212C13.913 20.534 13.913 20.5468 13.913 20.5596C13.913 20.5727 13.913 20.5855 13.913 20.5985C13.913 20.6116 13.913 20.6247 13.913 20.6378C13.913 20.6506 13.913 20.6639 13.913 20.677C13.913 20.6901 13.913 20.7032 13.913 20.7165C13.913 20.7296 13.913 20.743 13.913 20.7563C13.913 20.7694 13.913 20.7827 13.913 20.7961C13.913 20.8095 13.913 20.8228 13.913 20.8365C13.913 20.8498 13.913 20.8632 13.913 20.8768C13.913 20.8904 13.913 20.9038 13.913 20.9174C13.913 20.9311 13.913 20.9447 13.913 20.9583C13.913 20.972 13.913 20.9856 13.913 20.9995C13.913 21.0131 13.913 21.0268 13.913 21.0407C13.913 21.0546 13.913 21.0682 13.913 21.0822C13.913 21.0961 13.913 21.11 13.913 21.1239C13.913 21.1381 13.913 21.152 13.913 21.1659C13.913 21.1801 13.913 21.194 13.913 21.2082C13.913 21.2224 13.913 21.2366 13.913 21.2508C13.913 21.265 13.913 21.2792 13.913 21.2934C13.913 21.3075 13.913 21.322 13.913 21.3362C13.913 21.3507 13.913 21.3651 13.913 21.3793C13.913 21.3938 13.913 21.4083 13.913 21.4227C13.913 21.4372 13.913 21.452 13.913 21.4664C13.913 21.4809 13.913 21.4957 13.913 21.5104C13.913 21.5249 13.913 21.5396 13.913 21.5544C13.913 21.5691 13.913 21.5839 13.913 21.5986C13.913 21.6136 13.913 21.6284 13.913 21.6431C13.913 21.6582 13.913 21.6732 13.913 21.6879C13.913 21.703 13.913 21.718 13.913 21.733C13.913 21.748 13.913 21.7633 13.913 21.7784C13.913 21.7934 13.913 21.8087 13.913 21.8237C13.913 21.839 13.913 21.8543 13.913 21.8696C13.913 21.8849 13.913 21.9002 13.913 21.9155C13.913 21.9309 13.913 21.9464 13.913 21.9617C13.913 21.9773 13.913 21.9926 13.913 22.0082C13.913 22.0238 13.913 22.0394 13.913 22.055C13.913 22.0705 13.913 22.0861 13.913 22.102C13.913 22.1176 13.913 22.1331 13.913 22.149C13.913 22.1649 13.913 22.1807 13.913 22.1963C13.913 22.2122 13.913 22.2283 13.913 22.2442C13.913 22.26 13.913 22.2759 13.913 22.292C13.913 22.3079 13.913 22.324 13.913 22.3402C13.913 22.3563 13.913 22.3725 13.913 22.3886C13.913 22.4047 13.913 22.4209 13.913 22.4373C13.913 22.4534 13.913 22.4698 13.913 22.486C13.913 22.5024 13.913 22.5188 13.913 22.5352C13.913 22.5517 13.913 22.5681 13.913 22.5845C13.913 22.6012 13.913 22.6176 13.913 22.6343C13.913 22.6507 13.913 22.6674 13.913 22.6841C13.913 22.7008 13.913 22.7175 13.913 22.7342C13.913 22.7509 13.913 22.7679 13.913 22.7846C13.913 22.8015 13.913 22.8182 13.913 22.8352C13.913 22.8522 13.913 22.8691 13.913 22.8861C13.913 22.9031 13.913 22.9203 13.913 22.9373C13.913 22.9543 13.913 22.9715 13.913 22.9888C13.913 23.0058 13.913 23.023 13.913 23.0403C13.913 23.0575 13.913 23.0748 13.913 23.0923C13.913 23.1096 13.913 23.1268 13.913 23.1443C13.913 23.1619 13.913 23.1791 13.913 23.1967C13.913 23.2142 13.913 23.2317 13.913 23.2495C13.913 23.2671 13.913 23.2846 13.913 23.3024C13.913 23.3199 13.913 23.3377 13.913 23.3555C13.913 23.3734 13.913 23.3912 13.913 23.409C13.913 23.4268 13.913 23.4446 13.913 23.4627C13.913 23.4805 13.913 23.4986 13.913 23.5167C13.913 23.5345 13.913 23.5526 13.913 23.5709C13.913 23.589 13.913 23.6071 13.913 23.6252C13.913 23.6435 13.913 23.6616 13.913 23.68C13.913 23.6984 13.913 23.7167 13.913 23.7351C13.913 23.7535 13.913 23.7718 13.913 23.7902C13.913 23.8086 13.913 23.8272 13.913 23.8458C13.913 23.8642 13.913 23.8829 13.913 23.9015C13.913 23.9201 13.913 23.9388 13.913 23.9574C13.913 23.9763 13.913 23.995 13.913 24.0139C13.913 24.0326 13.913 24.0515 13.913 24.0704C13.913 24.0893 13.913 24.1082 13.913 24.1272C13.913 24.1464 13.913 24.1653 13.913 24.1845C13.913 24.2034 13.913 24.2226 13.913 24.2418C13.913 24.261 13.913 24.2802 13.913 24.2994C13.913 24.3186 13.913 24.3378 13.913 24.3573C13.913 24.3765 13.913 24.396 13.913 24.4154C13.913 24.4349 13.913 24.4544 13.913 24.4739C13.913 24.4934 13.913 24.5128 13.913 24.5326C13.913 24.5521 13.913 24.5718 13.913 24.5916C13.913 24.6113 13.913 24.6311 13.913 24.6509C13.913 24.6706 13.913 24.6904 13.913 24.7104C13.913 24.7302 13.913 24.7502 13.913 24.7702C13.913 24.79 13.913 24.81 13.913 24.8303C13.913 24.8504 13.913 24.8704 13.913 24.8904C13.913 24.9107 13.913 24.9308 13.913 24.9511C13.913 24.9714 13.913 24.9917 13.913 25.012C13.913 25.0323 13.913 25.0527 13.913 25.0733C13.913 25.0936 13.913 25.1142 13.913 25.1347C13.913 25.1551 13.913 25.1757 13.913 25.1962C13.913 25.2171 13.913 25.2377 13.913 25.2583C13.913 25.2792 13.913 25.2998 13.913 25.3206C13.913 25.3415 13.913 25.3624 13.913 25.3832C13.913 25.4041 13.913 25.425 13.913 25.4461C13.913 25.467 13.913 25.4881 13.913 25.5093C13.913 25.5302 13.913 25.5513 13.913 25.5725C13.913 25.5936 13.913 25.615 13.913 25.6362C13.913 25.6576 13.913 25.6787 13.913 25.7002C13.913 25.7216 13.913 25.743 13.913 25.7645C13.913 25.7859 13.913 25.8073 13.913 25.829C13.913 25.8504 13.913 25.8721 13.913 25.8938C13.913 25.9153 13.913 25.937 13.913 25.959C13.913 25.9807 13.913 26.0024 13.913 26.0243C13.913 26.0461 13.913 26.068 13.913 26.0897C13.913 26.1117 13.913 26.1337 13.913 26.1557C13.913 26.1779 13.913 26.1999 13.913 26.2222C13.913 26.2442 13.913 26.2664 13.913 26.2887C13.913 26.3107 13.913 26.3329 13.913 26.3555C13.913 26.3777 13.913 26.4 13.913 26.4225C13.913 26.4448 13.913 26.4673 13.913 26.4899C13.913 26.5124 13.913 26.535 13.913 26.5575C13.913 26.58 13.913 26.6029 13.913 26.6254C13.913 26.6482 13.913 26.671 13.913 26.6938C13.913 26.7167 13.913 26.7395 13.913 26.7623C13.913 26.7851 13.913 26.8082 13.913 26.831C13.913 26.8541 13.913 26.8772 13.913 26.9003C13.913 26.9234 13.913 26.9465 13.913 26.9696C13.913 26.993 13.913 27.0161 13.913 27.0394C13.913 27.0628 13.913 27.0862 13.913 27.1096C13.913 27.1329 13.913 27.1563 13.913 27.1797C13.913 27.2033 13.913 27.2267 13.913 27.2504C13.913 27.274 13.913 27.2977 13.913 27.3213C13.913 27.345 13.913 27.3686 13.913 27.3926C13.913 27.4162 13.913 27.4401 13.913 27.4641C13.913 27.488 13.913 27.5119 13.913 27.5359C13.913 27.5598 13.913 27.5837 13.913 27.6079C13.913 27.6319 13.913 27.6561 13.913 27.6803C13.913 27.7045 13.913 27.7287 13.913 27.7529C13.913 27.7774 13.913 27.8016 13.913 27.8261C13.913 27.8503 13.913 27.8748 13.913 27.8993C13.913 27.9238 13.913 27.9482 13.913 27.973C13.913 27.9975 13.913 28.022 13.913 28.0467C13.913 28.0715 13.913 28.0963 13.913 28.121C13.913 28.1458 13.913 28.1706 13.913 28.1956C13.913 28.2204 13.913 28.2454 13.913 28.2705C13.913 28.2952 13.913 28.3203 13.913 28.3456C13.913 28.3706 13.913 28.3957 13.913 28.421C13.913 28.4461 13.913 28.4714 13.913 28.4967C13.913 28.522 13.913 28.5473 13.913 28.5727C13.913 28.598 13.913 28.6236 13.913 28.6489C13.913 28.6745 13.913 28.7001 13.913 28.7257C13.913 28.7513 13.913 28.7769 13.913 28.8028C13.913 28.8284 13.913 28.8543 13.913 28.8799C13.913 28.9057 13.913 28.9316 13.913 28.9575C13.913 28.9834 13.913 29.0095 13.913 29.0354C13.913 29.0616 13.913 29.0874 13.913 29.1136C13.913 29.1398 13.913 29.1659 13.913 29.1921C13.913 29.2185 13.913 29.2447 13.913 29.2711C13.913 29.2973 13.913 29.3237 13.913 29.3501C13.913 29.3766 13.913 29.403 13.913 29.4297C13.913 29.4561 13.913 29.4829 13.913 29.5093C13.913 29.536 13.913 29.5627 13.913 29.5894C13.913 29.6161 13.913 29.6431 13.913 29.6698C13.913 29.6968 13.913 29.7236 13.913 29.7505C13.913 29.7775 13.913 29.8045 13.913 29.8318C13.913 29.8588 13.913 29.8858 13.913 29.913H18.087C18.087 29.8858 18.087 29.8588 18.087 29.8318C18.087 29.8045 18.087 29.7775 18.087 29.7505C18.087 29.7236 18.087 29.6968 18.087 29.6698C18.087 29.6431 18.087 29.6161 18.087 29.5894C18.087 29.5627 18.087 29.536 18.087 29.5093C18.087 29.4829 18.087 29.4561 18.087 29.4297C18.087 29.403 18.087 29.3766 18.087 29.3501C18.087 29.3237 18.087 29.2973 18.087 29.2711C18.087 29.2447 18.087 29.2185 18.087 29.1921C18.087 29.1659 18.087 29.1398 18.087 29.1136C18.087 29.0874 18.087 29.0616 18.087 29.0354C18.087 29.0095 18.087 28.9834 18.087 28.9575C18.087 28.9316 18.087 28.9057 18.087 28.8799C18.087 28.8543 18.087 28.8284 18.087 28.8028C18.087 28.7769 18.087 28.7513 18.087 28.7257C18.087 28.7001 18.087 28.6745 18.087 28.6489C18.087 28.6236 18.087 28.598 18.087 28.5727C18.087 28.5473 18.087 28.522 18.087 28.4967C18.087 28.4714 18.087 28.4461 18.087 28.421C18.087 28.3957 18.087 28.3706 18.087 28.3456C18.087 28.3203 18.087 28.2952 18.087 28.2705C18.087 28.2454 18.087 28.2204 18.087 28.1956C18.087 28.1706 18.087 28.1458 18.087 28.121C18.087 28.0963 18.087 28.0715 18.087 28.0467C18.087 28.022 18.087 27.9975 18.087 27.973C18.087 27.9482 18.087 27.9238 18.087 27.8993C18.087 27.8748 18.087 27.8503 18.087 27.8261C18.087 27.8016 18.087 27.7774 18.087 27.7529C18.087 27.7287 18.087 27.7045 18.087 27.6803C18.087 27.6561 18.087 27.6319 18.087 27.6079C18.087 27.5837 18.087 27.5598 18.087 27.5359C18.087 27.5119 18.087 27.488 18.087 27.4641C18.087 27.4401 18.087 27.4162 18.087 27.3926C18.087 27.3686 18.087 27.345 18.087 27.3213C18.087 27.2977 18.087 27.274 18.087 27.2504C18.087 27.2267 18.087 27.2033 18.087 27.1797C18.087 27.1563 18.087 27.1329 18.087 27.1096C18.087 27.0862 18.087 27.0628 18.087 27.0394C18.087 27.0161 18.087 26.993 18.087 26.9696C18.087 26.9465 18.087 26.9234 18.087 26.9003C18.087 26.8772 18.087 26.8541 18.087 26.831C18.087 26.8082 18.087 26.7851 18.087 26.7623C18.087 26.7395 18.087 26.7167 18.087 26.6938C18.087 26.671 18.087 26.6482 18.087 26.6254C18.087 26.6029 18.087 26.58 18.087 26.5575C18.087 26.535 18.087 26.5124 18.087 26.4899C18.087 26.4673 18.087 26.4448 18.087 26.4225C18.087 26.4 18.087 26.3777 18.087 26.3555C18.087 26.3329 18.087 26.3107 18.087 26.2887C18.087 26.2664 18.087 26.2442 18.087 26.2222C18.087 26.1999 18.087 26.1779 18.087 26.1557C18.087 26.1337 18.087 26.1117 18.087 26.0897C18.087 26.068 18.087 26.0461 18.087 26.0243C18.087 26.0024 18.087 25.9807 18.087 25.959C18.087 25.937 18.087 25.9153 18.087 25.8938C18.087 25.8721 18.087 25.8504 18.087 25.829C18.087 25.8073 18.087 25.7859 18.087 25.7645C18.087 25.743 18.087 25.7216 18.087 25.7002C18.087 25.6787 18.087 25.6576 18.087 25.6362C18.087 25.615 18.087 25.5936 18.087 25.5725C18.087 25.5513 18.087 25.5302 18.087 25.5093C18.087 25.4881 18.087 25.467 18.087 25.4461C18.087 25.425 18.087 25.4041 18.087 25.3832C18.087 25.3624 18.087 25.3415 18.087 25.3206C18.087 25.2998 18.087 25.2792 18.087 25.2583C18.087 25.2377 18.087 25.2171 18.087 25.1962C18.087 25.1757 18.087 25.1551 18.087 25.1347C18.087 25.1142 18.087 25.0936 18.087 25.0733C18.087 25.0527 18.087 25.0323 18.087 25.012C18.087 24.9917 18.087 24.9714 18.087 24.9511C18.087 24.9308 18.087 24.9107 18.087 24.8904C18.087 24.8704 18.087 24.8504 18.087 24.8303C18.087 24.81 18.087 24.79 18.087 24.7702C18.087 24.7502 18.087 24.7302 18.087 24.7104C18.087 24.6904 18.087 24.6706 18.087 24.6509C18.087 24.6311 18.087 24.6113 18.087 24.5916C18.087 24.5718 18.087 24.5521 18.087 24.5326C18.087 24.5128 18.087 24.4934 18.087 24.4739C18.087 24.4544 18.087 24.4349 18.087 24.4154C18.087 24.396 18.087 24.3765 18.087 24.3573C18.087 24.3378 18.087 24.3186 18.087 24.2994C18.087 24.2802 18.087 24.261 18.087 24.2418C18.087 24.2226 18.087 24.2034 18.087 24.1845C18.087 24.1653 18.087 24.1464 18.087 24.1272C18.087 24.1082 18.087 24.0893 18.087 24.0704C18.087 24.0515 18.087 24.0326 18.087 24.0139C18.087 23.995 18.087 23.9763 18.087 23.9574C18.087 23.9388 18.087 23.9201 18.087 23.9015C18.087 23.8829 18.087 23.8642 18.087 23.8458C18.087 23.8272 18.087 23.8086 18.087 23.7902C18.087 23.7718 18.087 23.7535 18.087 23.7351C18.087 23.7167 18.087 23.6984 18.087 23.68C18.087 23.6616 18.087 23.6435 18.087 23.6252C18.087 23.6071 18.087 23.589 18.087 23.5709C18.087 23.5526 18.087 23.5345 18.087 23.5167C18.087 23.4986 18.087 23.4805 18.087 23.4627C18.087 23.4446 18.087 23.4268 18.087 23.409C18.087 23.3912 18.087 23.3734 18.087 23.3555C18.087 23.3377 18.087 23.3199 18.087 23.3024C18.087 23.2846 18.087 23.2671 18.087 23.2495C18.087 23.2317 18.087 23.2142 18.087 23.1967C18.087 23.1791 18.087 23.1619 18.087 23.1443C18.087 23.1268 18.087 23.1096 18.087 23.0923C18.087 23.0748 18.087 23.0575 18.087 23.0403C18.087 23.023 18.087 23.0058 18.087 22.9888C18.087 22.9715 18.087 22.9543 18.087 22.9373C18.087 22.9203 18.087 22.9031 18.087 22.8861C18.087 22.8691 18.087 22.8522 18.087 22.8352C18.087 22.8182 18.087 22.8015 18.087 22.7846C18.087 22.7679 18.087 22.7509 18.087 22.7342C18.087 22.7175 18.087 22.7008 18.087 22.6841C18.087 22.6674 18.087 22.6507 18.087 22.6343C18.087 22.6176 18.087 22.6012 18.087 22.5845C18.087 22.5681 18.087 22.5517 18.087 22.5352C18.087 22.5188 18.087 22.5024 18.087 22.486C18.087 22.4698 18.087 22.4534 18.087 22.4373C18.087 22.4209 18.087 22.4047 18.087 22.3886C18.087 22.3725 18.087 22.3563 18.087 22.3402C18.087 22.324 18.087 22.3079 18.087 22.292C18.087 22.2759 18.087 22.26 18.087 22.2442C18.087 22.2283 18.087 22.2122 18.087 22.1963C18.087 22.1807 18.087 22.1649 18.087 22.149C18.087 22.1331 18.087 22.1176 18.087 22.102C18.087 22.0861 18.087 22.0705 18.087 22.055C18.087 22.0394 18.087 22.0238 18.087 22.0082C18.087 21.9926 18.087 21.9773 18.087 21.9617C18.087 21.9464 18.087 21.9309 18.087 21.9155C18.087 21.9002 18.087 21.8849 18.087 21.8696C18.087 21.8543 18.087 21.839 18.087 21.8237C18.087 21.8087 18.087 21.7934 18.087 21.7784C18.087 21.7633 18.087 21.748 18.087 21.733C18.087 21.718 18.087 21.703 18.087 21.6879C18.087 21.6732 18.087 21.6582 18.087 21.6431C18.087 21.6284 18.087 21.6136 18.087 21.5986C18.087 21.5839 18.087 21.5691 18.087 21.5544C18.087 21.5396 18.087 21.5249 18.087 21.5104C18.087 21.4957 18.087 21.4809 18.087 21.4664C18.087 21.452 18.087 21.4372 18.087 21.4227C18.087 21.4083 18.087 21.3938 18.087 21.3793C18.087 21.3651 18.087 21.3507 18.087 21.3362C18.087 21.322 18.087 21.3075 18.087 21.2934C18.087 21.2792 18.087 21.265 18.087 21.2508C18.087 21.2366 18.087 21.2224 18.087 21.2082C18.087 21.194 18.087 21.1801 18.087 21.1659C18.087 21.152 18.087 21.1381 18.087 21.1239C18.087 21.11 18.087 21.0961 18.087 21.0822C18.087 21.0682 18.087 21.0546 18.087 21.0407C18.087 21.0268 18.087 21.0131 18.087 20.9995C18.087 20.9856 18.087 20.972 18.087 20.9583C18.087 20.9447 18.087 20.9311 18.087 20.9174C18.087 20.9038 18.087 20.8904 18.087 20.8768C18.087 20.8632 18.087 20.8498 18.087 20.8365C18.087 20.8228 18.087 20.8095 18.087 20.7961C18.087 20.7827 18.087 20.7694 18.087 20.7563C18.087 20.743 18.087 20.7296 18.087 20.7165C18.087 20.7032 18.087 20.6901 18.087 20.677C18.087 20.6639 18.087 20.6506 18.087 20.6378C18.087 20.6247 18.087 20.6116 18.087 20.5985C18.087 20.5855 18.087 20.5727 18.087 20.5596C18.087 20.5468 18.087 20.534 18.087 20.5212C18.087 20.5081 18.087 20.4953 18.087 20.4825C18.087 20.47 18.087 20.4572 18.087 20.4444C18.087 20.4319 18.087 20.4191 18.087 20.4065C18.087 20.3937 18.087 20.3812 18.087 20.3687C18.087 20.3562 18.087 20.3437 18.087 20.3311C18.087 20.3186 18.087 20.3061 18.087 20.2938C18.087 20.2813 18.087 20.2691 18.087 20.2566C18.087 20.2443 18.087 20.2321 18.087 20.2198C18.087 20.2076 18.087 20.1953 18.087 20.1831C18.087 20.1709 18.087 20.1586 18.087 20.1466C18.087 20.1344 18.087 20.1224 18.087 20.1102C18.087 20.0982 18.087 20.0863 18.087 20.0743C18.087 20.0623 18.087 20.0504 18.087 20.0384C18.087 20.0264 18.087 20.0147 18.087 20.0028C18.087 19.9908 18.087 19.9791 18.087 19.9674C18.087 19.9555 18.087 19.9438 18.087 19.9321C18.087 19.9204 18.087 19.9087 18.087 19.897C18.087 19.8856 18.087 19.8739 18.087 19.8623C18.087 19.8509 18.087 19.8392 18.087 19.8278C18.087 19.8163 18.087 19.8049 18.087 19.7933C18.087 19.7818 18.087 19.7704 18.087 19.7593C18.087 19.7479 18.087 19.7365 18.087 19.7254C18.087 19.714 18.087 19.7028 18.087 19.6914C18.087 19.6803 18.087 19.6691 18.087 19.658C18.087 19.6469 18.087 19.6358 18.087 19.6246C18.087 19.6135 18.087 19.6024 18.087 19.5915C18.087 19.5804 18.087 19.5695 18.087 19.5584C18.087 19.5475 18.087 19.5367 18.087 19.5258C18.087 19.5147 18.087 19.5039 18.087 19.4933C18.087 19.4824 18.087 19.4716 18.087 19.4607C18.087 19.4502 18.087 19.4393 18.087 19.4287C18.087 19.4179 18.087 19.4073 18.087 19.3967C18.087 19.3862 18.087 19.3756 18.087 19.365C18.087 19.3544 18.087 19.3439 18.087 19.3336C18.087 19.323 18.087 19.3124 18.087 19.3021C18.087 19.2915 18.087 19.2813 18.087 19.271C18.087 19.2607 18.087 19.2504 18.087 19.2401C18.087 19.2298 18.087 19.2195 18.087 19.2092C18.087 19.1989 18.087 19.1889 18.087 19.1786C18.087 19.1686 18.087 19.1583 18.087 19.1482C18.087 19.1382 18.087 19.1282 18.087 19.1182C18.087 19.1082 18.087 19.0982 18.087 19.0881C18.087 19.0781 18.087 19.0684 18.087 19.0584C18.087 19.0483 18.087 19.0386 18.087 19.0289C18.087 19.0189 18.087 19.0091 18.087 18.9994C18.087 18.9896 18.087 18.9799 18.087 18.9702C18.087 18.9604 18.087 18.9507 18.087 18.9412C18.087 18.9315 18.087 18.9217 18.087 18.9123C18.087 18.9028 18.087 18.8931 18.087 18.8836C18.087 18.8742 18.087 18.8647 18.087 18.8552C18.087 18.8458 18.087 18.8363 18.087 18.8269C18.087 18.8174 18.087 18.8082 18.087 18.7987C18.087 18.7896 18.087 18.7801 18.087 18.7709C18.087 18.7617 18.087 18.7526 18.087 18.7431C18.087 18.7339 18.087 18.7247 18.087 18.7158C18.087 18.7066 18.087 18.6975 18.087 18.6883C18.087 18.6794 18.087 18.6702 18.087 18.6613C18.087 18.6521 18.087 18.6432 18.087 18.6343C18.087 18.6254 18.087 18.6162 18.087 18.6076C18.087 18.5987 18.087 18.5898 18.087 18.5809C18.087 18.572 18.087 18.5631 18.087 18.5544C18.087 18.5455 18.087 18.5369 18.087 18.5283C18.087 18.5194 18.087 18.5107 18.087 18.5021C18.087 18.4935 18.087 18.4849 18.087 18.4762C18.087 18.4676 18.087 18.459 18.087 18.4506C18.087 18.442 18.087 18.4334 18.087 18.425C18.087 18.4164 18.087 18.4081 18.087 18.3997C18.087 18.3911 18.087 18.3827 18.087 18.3744C18.087 18.3661 18.087 18.3577 18.087 18.3494C18.087 18.3413 18.087 18.3329 18.087 18.3246C18.087 18.3165 18.087 18.3082 18.087 18.3001C18.087 18.2918 18.087 18.2837 18.087 18.2756C18.087 18.2675 18.087 18.2592 18.087 18.2511C18.087 18.2431 18.087 18.2353 18.087 18.2272C18.087 18.2191 18.087 18.2111 18.087 18.2033C18.087 18.1952 18.087 18.1874 18.087 18.1793C18.087 18.1715 18.087 18.1638 18.087 18.1557C18.087 18.1479 18.087 18.1401 18.087 18.1323C18.087 18.1245 18.087 18.1167 18.087 18.1092C18.087 18.1014 18.087 18.0936 18.087 18.0861C18.087 18.0783 18.087 18.0708 18.087 18.063C18.087 18.0555 18.087 18.048 18.087 18.0402C18.087 18.0327 18.087 18.0252 18.087 18.0177C18.087 18.0102 18.087 18.0029 18.087 17.9954C18.087 17.9879 18.087 17.9804 18.087 17.9731C18.087 17.9656 18.087 17.9584 18.087 17.9509C18.087 17.9437 18.087 17.9364 18.087 17.9292C18.087 17.9217 18.087 17.9144 18.087 17.9072C18.087 17.9 18.087 17.893 18.087 17.8858C18.087 17.8785 18.087 17.8713 18.087 17.8643C18.087 17.8571 18.087 17.8502 18.087 17.8429C18.087 17.836 18.087 17.829 18.087 17.8221C18.087 17.8148 18.087 17.8079 18.087 17.8009C18.087 17.7939 18.087 17.787 18.087 17.7803C18.087 17.7734 18.087 17.7664 18.087 17.7597C18.087 17.7528 18.087 17.7458 18.087 17.7391C18.087 17.7325 18.087 17.7255 18.087 17.7188C18.087 17.7121 18.087 17.7055 18.087 17.6988C18.087 17.6921 18.087 17.6854 18.087 17.6787C18.087 17.6721 18.087 17.6654 18.087 17.659C18.087 17.6523 18.087 17.6456 18.087 17.6392C18.087 17.6326 18.087 17.6262 18.087 17.6198C18.087 17.6131 18.087 17.6067 18.087 17.6003C18.087 17.5939 18.087 17.5875 18.087 17.5811C18.087 17.5747 18.087 17.5683 18.087 17.5622C18.087 17.5558 18.087 17.5494 18.087 17.5432C18.087 17.5368 18.087 17.5307 18.087 17.5243C18.087 17.5182 18.087 17.5121 18.087 17.5059C18.087 17.4995 18.087 17.4934 18.087 17.4873C18.087 17.4812 18.087 17.4751 18.087 17.4692C18.087 17.4631 18.087 17.457 18.087 17.4509C18.087 17.445 18.087 17.4389 18.087 17.433C18.087 17.4269 18.087 17.4211 18.087 17.4152C18.087 17.4091 18.087 17.4033 18.087 17.3974C18.087 17.3916 18.087 17.3857 18.087 17.3799C18.087 17.3741 18.087 17.3682 18.087 17.3626C18.087 17.3568 18.087 17.351 18.087 17.3454C18.087 17.3395 18.087 17.334 18.087 17.3281C18.087 17.3226 18.087 17.3167 18.087 17.3112C18.087 17.3056 18.087 17.3 18.087 17.2945C18.087 17.2889 18.087 17.2833 18.087 17.2778C18.087 17.2722 18.087 17.2666 18.087 17.2614C18.087 17.2558 18.087 17.2502 18.087 17.2449C18.087 17.2394 18.087 17.2341 18.087 17.2285C18.087 17.2232 18.087 17.2179 18.087 17.2127C18.087 17.2071 18.087 17.2018 18.087 17.1965C18.087 17.1912 18.087 17.1859 18.087 17.1807C18.087 17.1754 18.087 17.1704 18.087 17.1651C18.087 17.1598 18.087 17.1548 18.087 17.1495C18.087 17.1445 18.087 17.1392 18.087 17.1342C18.087 17.1289 18.087 17.1239 18.087 17.1189C18.087 17.1139 18.087 17.1089 18.087 17.1039C18.087 17.0989 18.087 17.0938 18.087 17.0888C18.087 17.0838 18.087 17.0788 18.087 17.0738C18.087 17.0691 18.087 17.0641 18.087 17.0593C18.087 17.0543 18.087 17.0496 18.087 17.0446C18.087 17.0399 18.087 17.0351 18.087 17.0301C18.087 17.0254 18.087 17.0207 18.087 17.0159C18.087 17.0112 18.087 17.0065 18.087 17.0017C18.087 16.997 18.087 16.9923 18.087 16.9878C18.087 16.9831 18.087 16.9784 18.087 16.9739C18.087 16.9692 18.087 16.9645 18.087 16.96C18.087 16.9555 18.087 16.9508 18.087 16.9464C18.087 16.9419 18.087 16.9372 18.087 16.9327C18.087 16.9283 18.087 16.9238 18.087 16.9194C18.087 16.9149 18.087 16.9105 18.087 16.9063C18.087 16.9018 18.087 16.8974 18.087 16.8929C18.087 16.8888 18.087 16.8843 18.087 16.8801C18.087 16.8757 18.087 16.8715 18.087 16.8671C18.087 16.8629 18.087 16.8587 18.087 16.8545C18.087 16.8501 18.087 16.8459 18.087 16.8417C18.087 16.8376 18.087 16.8334 18.087 16.8292C18.087 16.825 18.087 16.8211 18.087 16.817C18.087 16.8128 18.087 16.8086 18.087 16.8047C18.087 16.8006 18.087 16.7967 18.087 16.7925C18.087 16.7886 18.087 16.7844 18.087 16.7805C18.087 16.7766 18.087 16.7725 18.087 16.7686C18.087 16.7647 18.087 16.7608 18.087 16.7569C18.087 16.753 18.087 16.7491 18.087 16.7452C18.087 16.7413 18.087 16.7374 18.087 16.7338C18.087 16.7299 18.087 16.726 18.087 16.7224C18.087 16.7185 18.087 16.7149 18.087 16.711C18.087 16.7073 18.087 16.7034 18.087 16.6998C18.087 16.6962 18.087 16.6923 18.087 16.6887C18.087 16.6851 18.087 16.6815 18.087 16.6778C18.087 16.6742 18.087 16.6706 18.087 16.667C18.087 16.6634 18.087 16.6598 18.087 16.6564C18.087 16.6528 18.087 16.6492 18.087 16.6458C18.087 16.6422 18.087 16.6389 18.087 16.6353C18.087 16.6319 18.087 16.6283 18.087 16.625C18.087 16.6214 18.087 16.618 18.087 16.6147C18.087 16.6113 18.087 16.608 18.087 16.6047C18.087 16.6013 18.087 16.598 18.087 16.5946C18.087 16.5913 18.087 16.588 18.087 16.5846C18.087 16.5813 18.087 16.5779 18.087 16.5749C18.087 16.5715 18.087 16.5682 18.087 16.5651C18.087 16.5618 18.087 16.5587 18.087 16.5557C18.087 16.5523 18.087 16.5493 18.087 16.5459C18.087 16.5429 18.087 16.5398 18.087 16.5368C18.087 16.5337 18.087 16.5306 18.087 16.5276C18.087 16.5245 18.087 16.5215 18.087 16.5184C18.087 16.5153 18.087 16.5123 18.087 16.5092C18.087 16.5062 18.087 16.5034 18.087 16.5003C18.087 16.4973 18.087 16.4945 18.087 16.4914C18.087 16.4886 18.087 16.4856 18.087 16.4828C18.087 16.48 18.087 16.4769 18.087 16.4742C18.087 16.4714 18.087 16.4686 18.087 16.4655C18.087 16.4627 18.087 16.46 18.087 16.4572C18.087 16.4544 18.087 16.4516 18.087 16.4488C18.087 16.4461 18.087 16.4435 18.087 16.4408C18.087 16.438 18.087 16.4352 18.087 16.4327C18.087 16.4299 18.087 16.4271 18.087 16.4246C18.087 16.4218 18.087 16.4193 18.087 16.4166C18.087 16.4141 18.087 16.4115 18.087 16.4088C18.087 16.4063 18.087 16.4038 18.087 16.4013C18.087 16.3985 18.087 16.396 18.087 16.3935C18.087 16.391 18.087 16.3885 18.087 16.3859C18.087 16.3834 18.087 16.3787 18.087 16.3787C18.087 16.3762 18.087 16.3737 18.087 16.3712C18.087 16.3712 18.087 16.3665 18.087 16.364V16.357C18.087 16.3545 18.087 16.3523 18.087 16.3498C18.087 16.3498 18.087 16.3453 18.087 16.3428V16.3361V16.3292V16.3225V16.3161V16.3094V16.303V16.2969V16.2905V16.2844V16.2783V16.2724V16.2666V16.2607V16.2552V16.2493V16.2438V16.2385V16.2329V16.2276V16.2226V16.2173V16.2123V16.2073V16.2026V16.1976V16.1928V16.1881V16.1837V16.1792V16.1747V16.1703V16.1661V16.1617V16.1578V16.1536V16.1497V16.1455V16.1416V16.138V16.1341V16.1305V16.1269V16.1235V16.1199V16.1166V16.1133V16.1099V16.1069V16.1038V16.1005V16.0977V16.0946V16.0918V16.0888V16.086V16.0807V16.0757V16.0707V16.0659V16.0615V16.057V16.0531V16.0493V16.0456V16.042V16.0387V16.0356V16.0326V16.0284V16.0248V16.0214V16.0181V16.0153V16.0122V16.0095V16.0061V16.0033V16H16ZM18.087 16V2.08696H13.913V16H18.087Z" fill="white"/>
</svg>
