<svg 
    width="32" 
    height="32" 
    viewBox="0 0 32 32" 
    fill="none" 
    xmlns="http://www.w3.org/2000/svg"
>
    <path fill="currentColor" d="M16 0C14.8474 0 13.913 0.934372 13.913 2.08696V13.913H2.08696C0.934372 13.913 0 14.8474 0 16C0 17.1526 0.934372 18.087 2.08696 18.087H13.913V29.913C13.913 31.0656 14.8474 32 16 32C17.1526 32 18.087 31.0656 18.087 29.913V18.087H29.913C31.0656 18.087 32 17.1526 32 16C32 14.8474 31.0656 13.913 29.913 13.913H18.087V2.08696C18.087 0.934372 17.1526 0 16 0Z"/>
</svg>
