<svg 
  width="32" 
  height="36" 
  viewBox="0 0 32 36" 
  fill="none" 
  xmlns="http://www.w3.org/2000/svg"
>
<path
  stroke="currentColor" 
  stroke-width="3" 
  stroke-linecap="round" 
  stroke-linejoin="round"
  d="M2 30.4444V7.68889C2 5.6976 2 4.70194 2.38148 3.94137C2.71703 3.27234 3.25246 2.72841 3.91104 2.38754C4.65972 2 5.63982 2 7.6 2H24.4C26.3602 2 27.3404 2 28.089 2.38754C28.7475 2.72841 29.283 3.27234 29.6185 3.94137C30 4.70194 30 5.6976 30 7.68889V26.8889H5.5C3.567 26.8889 2 28.4807 2 30.4444ZM2 30.4444C2 32.4082 3.567 34 5.5 34H30M10.75 9.11111H21.25M10.75 16.2222H21.25M28.25 26.8889V34" />
</svg>
