<svg 
  width="32" 
  height="36" 
  viewBox="0 0 32 36" 
  fill="none" 
  xmlns="http://www.w3.org/2000/svg"
>
  <path 
    stroke="currentColor" 
    stroke-width="3" 
    stroke-linecap="round" 
    stroke-linejoin="round"
    d="M14.4291 27.3928L6.19835 33.4824C5.80826 33.771 5.34465 33.9467 4.8593 33.9897C4.37396 34.0326 3.88612 33.9413 3.45036 33.7257C3.01461 33.5102 2.64814 33.1791 2.39197 32.7694C2.13581 32.3597 2.00007 31.8877 2 31.406V7.1888C2 5.81278 2.55301 4.4931 3.53746 3.52001C4.52191 2.54694 5.85711 2.00017 7.24945 2H24.7505C26.1428 2.00017 27.4781 2.54694 28.4625 3.52001C29.4469 4.4931 30 5.81278 30 7.1888V31.4054C29.9999 31.887 29.8642 32.3591 29.608 32.7687C29.3519 33.1784 28.9854 33.5095 28.5496 33.725C28.1139 33.9406 27.626 34.0319 27.1407 33.989C26.6554 33.946 26.1917 33.7704 25.8017 33.4817L17.5756 27.3928C17.1215 27.0567 16.5696 26.8752 16.0024 26.8752C15.4351 26.8752 14.8831 27.0567 14.4291 27.3928Z" 
  />
</svg>
