<svg 
  width="30" 
  height="32" 
  viewBox="0 0 30 32" 
  fill="none" 
  xmlns="http://www.w3.org/2000/svg"
>
  <path 
    fill="currentColor"
    d="M7.13115 15.9998C8.3332 15.9998 9.41412 16.7032 9.90508 17.7802L10.0011 18.0166L14.158 29.6239C14.4891 30.5486 14.006 31.5658 13.0788 31.8959C12.2179 32.2026 11.2767 31.809 10.8816 31.0109L10.8004 30.8197L9.94953 28.4441H4.31276L3.46196 30.8197C3.13083 31.7443 2.11076 32.2262 1.18357 31.8959C0.322617 31.5894 -0.155509 30.6904 0.0457154 29.8232L0.104346 29.6239L4.26122 18.0166C4.69439 16.8072 5.84325 15.9998 7.13115 15.9998ZM23.1751 1.77775C24.1597 1.77775 24.9578 2.57369 24.9578 3.55551V25.6245L26.9567 23.6311C27.653 22.9369 28.7816 22.9369 29.4779 23.6311C30.174 24.3254 30.174 25.451 29.4779 26.1452L24.4356 31.1736C23.7395 31.8678 22.6107 31.8678 21.9146 31.1736L16.8725 26.1452C16.1764 25.451 16.1764 24.3254 16.8725 23.6311C17.5686 22.9369 18.6974 22.9369 19.3935 23.6311L21.3924 25.6245V3.55551C21.3924 2.57369 22.1905 1.77775 23.1751 1.77775ZM7.13115 20.5743L5.5861 24.8885H8.67621L7.13115 20.5743ZM12.0488 0C13.7259 0 14.5993 1.94125 13.5735 3.18646L13.4353 3.3383L6.08689 10.6665H12.4791C13.4637 10.6665 14.2618 11.4625 14.2618 12.4443C14.2618 13.356 13.5736 14.1074 12.687 14.2101L12.4791 14.222H2.21353C0.536393 14.222 -0.336997 12.2808 0.688744 11.0356L0.826933 10.8837L8.17541 3.55551H1.78315C0.798606 3.55551 0.000488095 2.75957 0.000488095 1.77775C0.000488095 0.866065 0.688661 0.114653 1.57526 0.0119602L1.78315 0H12.0488Z" 
  />
</svg>
