<svg 
  width="30" 
  height="32" 
  viewBox="0 0 30 32" 
  fill="none" 
  xmlns="http://www.w3.org/2000/svg"
>
  <path 
    fill="currentColor" 
    fill-rule="evenodd" 
    clip-rule="evenodd" 
    d="M12.0488 17.7778C13.7259 17.7778 14.5993 19.7191 13.5735 20.9643L13.4353 21.1161L6.08689 28.4444H12.4791C13.4637 28.4444 14.2618 29.2404 14.2618 30.2222C14.2618 31.134 13.5736 31.8854 12.687 31.988L12.4791 32H2.21353C0.536393 32 -0.336997 30.0587 0.688744 28.8135L0.826933 28.6617L8.1754 21.3333H1.78315C0.798606 21.3333 0.000488094 20.5374 0.000488094 19.5556C0.000488094 18.6438 0.688661 17.8924 1.57526 17.7897L1.78315 17.7778H12.0488ZM23.1751 1.77778C24.1597 1.77778 24.9578 2.57372 24.9578 3.55556V25.6249L26.9567 23.6315C27.653 22.9372 28.7816 22.9372 29.4779 23.6315C30.174 24.3257 30.174 25.4514 29.4779 26.1456L24.4356 31.174C23.7395 31.8683 22.6107 31.8683 21.9146 31.174L16.8725 26.1456C16.1764 25.4514 16.1764 24.3257 16.8725 23.6315C17.5686 22.9372 18.6974 22.9372 19.3935 23.6315L21.3924 25.6249V3.55556C21.3924 2.57372 22.1905 1.77778 23.1751 1.77778ZM7.13115 0C8.3332 0 9.41412 0.703331 9.90508 1.78052L10.0011 2.01694L14.158 13.6244C14.4891 14.549 14.006 15.5662 13.0788 15.8964C12.2179 16.2031 11.2767 15.8094 10.8816 15.0113L10.8004 14.8201L9.94953 12.4444H4.31276L3.46196 14.8201C3.13083 15.7447 2.11076 16.2267 1.18357 15.8964C0.322617 15.5898 -0.155509 14.6908 0.0457154 13.8236L0.104346 13.6244L4.26122 2.01694C4.69439 0.807396 5.84325 0 7.13115 0ZM7.13115 4.5746L5.5861 8.88889H8.67621L7.13115 4.5746Z"
  />
</svg>
