<svg 
  width="44" 
  height="32" 
  viewBox="0 0 44 32" 
  fill="none" 
  xmlns="http://www.w3.org/2000/svg"
>
  <path 
    stroke="currentColor"
    stroke-width="3" 
    d="M36.8715 4.91684L36.8871 4.94314L36.9038 4.96878C39.9087 9.5884 41.7598 15.4456 42.3199 20.5044C42.5997 23.0317 42.5492 25.2906 42.1984 27.0508C41.8406 28.8463 41.2254 29.8636 40.6107 30.3019C40.1515 30.591 39.3549 30.6428 37.8474 29.8893C36.3777 29.1547 34.6967 27.88 32.8737 26.4032C32.4643 26.0715 32.0474 25.7293 31.6266 25.3839C30.2315 24.239 28.7937 23.0589 27.4423 22.1087C26.5538 21.4839 25.6528 20.9218 24.7707 20.5122C23.899 20.1074 22.9541 19.8078 22 19.8078C21.0472 19.8078 20.0991 20.1067 19.2227 20.51C18.3351 20.9185 17.4254 21.4794 16.5264 22.1036C15.134 23.0705 13.6519 24.2735 12.2176 25.4377C11.8166 25.7631 11.4194 26.0855 11.0289 26.3989C9.18684 27.8772 7.49485 29.1549 6.03277 29.8914C4.49301 30.6672 3.77067 30.5669 3.40747 30.3147C2.78681 29.8836 2.16292 28.864 1.80156 27.0508C1.45079 25.2906 1.40034 23.0317 1.68014 20.5044C2.24018 15.4456 4.09125 9.5884 7.0962 4.96878L7.11288 4.94314L7.1285 4.91684C8.44591 2.69867 10.9054 1.5 13.7824 1.5H30.2176C33.0946 1.5 35.5541 2.69867 36.8715 4.91684ZM16.5216 15.3363H18.0216V13.8363V11.069V9.56901H16.5216H15.2824V8.30176V6.80176H13.7824H11.0433H9.54326V8.30176V9.56901H8.30408H6.80408V11.069V13.8363V15.3363H8.30408H9.54326V16.6035V18.1035H11.0433H13.7824H15.2824V16.6035V15.3363H16.5216ZM28.848 19.2104C31.0604 19.2104 32.8132 17.4175 32.8132 15.2199C32.8132 14.5157 32.6332 13.853 32.3158 13.2776C32.8385 13.5327 33.4271 13.6759 34.0524 13.6759C36.2648 13.6759 38.0177 11.883 38.0177 9.68539C38.0177 7.48779 36.2648 5.69486 34.0524 5.69486C31.84 5.69486 30.0871 7.48779 30.0871 9.68539C30.0871 10.3896 30.2671 11.0523 30.5846 11.6277C30.0619 11.3726 29.4733 11.2294 28.848 11.2294C26.6356 11.2294 24.8827 13.0223 24.8827 15.2199C24.8827 17.4175 26.6356 19.2104 28.848 19.2104Z" 
  />
</svg>
