<svg width="205" height="78" viewBox="0 0 205 78" fill="none" xmlns="http://www.w3.org/2000/svg">
<path d="M94 0.464049L106 21.2487V52.5L120.5 63L135 52.5V20.7129L146.959 0H147V58.5L120.5 78L94 58.5V0.464049Z" fill="white"/>
<path d="M68 20.7653V78H80V0H79.9888L68 20.7653Z" fill="white"/>
<path d="M0 20.5691V78H0.132076L12 57.4442V0H11.8756L0 20.5691Z" fill="white"/>
<path d="M42 77.4967V21.0334L54 0.24879V56.7121L42 77.4967Z" fill="white"/>
<path d="M33 48.3923L39 38L33 27.6077H21L15 38L21 48.3923H33Z" fill="white"/>
<path d="M204.949 0L198.021 12H173V66H204.794L197.866 78H161V0H204.949Z" fill="white"/>
<path d="M200 38L194 48.3923H182L176 38L182 27.6077H194L200 38Z" fill="white"/>
<path d="M39 38L33 48.3923H21L15 38L21 27.6077H33L39 38Z" fill="#F7C201"/>
<path d="M200 38L194 48.3923H182L176 38L182 27.6077H194L200 38Z" fill="#F7C201"/>
</svg>
