<svg 
  width="118" 
  height="128" 
  viewBox="0 0 118 128" 
  fill="none" 
  xmlns="http://www.w3.org/2000/svg"
>
  <path 
    fill="#F7C201"
    d="M42.667 106.667L32.0003 125.142H10.6669L0.000175476 106.667L10.6669 88.1915H32.0003L42.667 106.667Z" 
  />
  <path 
    fill="#F7C201"
    d="M80 85.3333L69.3333 103.809H47.9999L37.3332 85.3333L47.9999 66.8581H69.3333L80 85.3333Z" 
  />
  <path 
    fill="#F7C201"
    d="M117.334 64L106.667 82.4752H85.3339L74.6672 64L85.3339 45.5248H106.667L117.334 64Z" 
  />
  <path 
    stroke="#F7C201" 
    stroke-width="3"
    d="M68.4673 25.6915L78.2679 42.6667L68.4673 59.6419H48.8659L39.0652 42.6667L48.8659 25.6915H68.4673Z" 
  />
  <path 
    stroke="#F7C201" 
    stroke-width="3"
    d="M31.1343 4.35813L40.9349 21.3333L31.1343 38.3085H11.5329L1.73223 21.3333L11.5329 4.35813H31.1343Z" 
  />
</svg>
