<svg 
  width="40" 
  height="36" 
  viewBox="0 0 40 36" 
  fill="none" 
  xmlns="http://www.w3.org/2000/svg"
>
  <path 
    stroke="currentColor" 
    stroke-width="3" 
    stroke-linecap="round" 
    stroke-linejoin="round"
    d="M10 4V32M30 4V32M2 10H10M30 10H38M2 26H10M30 26H38M2 18H38M8.4 34H31.6C33.8402 34 34.9604 34 35.816 33.564C36.5686 33.1806 37.1806 32.5686 37.564 31.816C38 30.9604 38 29.8402 38 27.6V8.4C38 6.1598 38 5.03968 37.564 4.18404C37.1806 3.43138 36.5686 2.81946 35.816 2.43598C34.9604 2 33.8402 2 31.6 2H8.4C6.1598 2 5.03968 2 4.18404 2.43598C3.43138 2.81946 2.81946 3.43138 2.43598 4.18404C2 5.03968 2 6.15978 2 8.4V27.6C2 29.8402 2 30.9604 2.43598 31.816C2.81946 32.5686 3.43138 33.1806 4.18404 33.564C5.03968 34 6.15978 34 8.4 34Z" 
  />
</svg>
