<svg 
  width="35" 
  height="36" 
  viewBox="0 0 35 36" 
  fill="none" 
  xmlns="http://www.w3.org/2000/svg"
>
  <path 
    stroke="currentColor" 
    stroke-width="3" 
    stroke-linecap="round" 
    stroke-linejoin="round"
    d="M33 24.8359V7.49985C33 4.10211 29.9645 1.51758 26.63 2.07618L15.6889 3.909C13.051 4.35088 11.1176 6.64479 11.1176 9.33267V28.5015M6.55882 34C9.07659 34 11.1176 31.9485 11.1176 29.4179V24.8359H6.55882C4.04106 24.8359 2 26.8873 2 29.4179C2 31.9485 4.04106 34 6.55882 34ZM28.4412 30.3343C30.9589 30.3343 33 28.2829 33 25.7523V21.1702H28.4412C25.9234 21.1702 23.8824 23.2217 23.8824 25.7523C23.8824 28.2829 25.9234 30.3343 28.4412 30.3343Z" 
  />
</svg>
