<svg 
  width="34" 
  height="32" 
  viewBox="0 0 34 32" 
  fill="none" 
  xmlns="http://www.w3.org/2000/svg"
>
  <path 
  fill="currentColor"
  d="M15.5786 2.13683C16.0141 0.900605 16.2317 0.282513 16.5537 0.111204C16.8323 -0.0370679 17.1677 -0.0370679 17.4464 0.111204C17.7683 0.282513 17.9859 0.900605 18.4214 2.13683L21.2998 10.3095C21.4238 10.6613 21.4857 10.8372 21.5974 10.9682C21.696 11.084 21.8218 11.1742 21.9638 11.231C22.1245 11.2953 22.3131 11.2991 22.6905 11.3067L31.4555 11.483C32.7814 11.5096 33.4443 11.523 33.709 11.7722C33.9379 11.9879 34.0415 12.3028 33.9847 12.6101C33.9193 12.9653 33.3909 13.3605 32.3341 14.1513L25.3479 19.3784C25.0472 19.6036 24.8969 19.7161 24.8051 19.8613C24.724 19.9897 24.676 20.1356 24.6651 20.2864C24.6529 20.4572 24.7075 20.6354 24.8167 20.992L27.3555 29.2736C27.7394 30.5263 27.9315 31.1527 27.7731 31.4779C27.636 31.7596 27.3646 31.9541 27.0508 31.9959C26.6883 32.044 26.1442 31.6703 25.0556 30.9227L17.8595 25.9807C17.5497 25.768 17.3949 25.6616 17.2266 25.6202C17.0778 25.5838 16.9222 25.5838 16.7736 25.6202C16.6053 25.6616 16.4503 25.768 16.1405 25.9807L8.94443 30.9227C7.85594 31.6703 7.31169 32.044 6.94922 31.9959C6.63553 31.9541 6.3641 31.7596 6.227 31.4779C6.06858 31.1527 6.26059 30.5263 6.6446 29.2736L9.18328 20.992C9.29257 20.6354 9.34721 20.4572 9.33491 20.2864C9.32404 20.1356 9.276 19.9897 9.19495 19.8613C9.10321 19.7161 8.95282 19.6036 8.65207 19.3784L1.66598 14.1513C0.609235 13.3605 0.0808632 12.9653 0.0152729 12.6101C-0.0415144 12.3028 0.0621663 11.9879 0.29114 11.7722C0.555683 11.523 1.2186 11.5096 2.54442 11.483L11.3095 11.3067C11.6868 11.2991 11.8755 11.2953 12.0363 11.231C12.1783 11.1742 12.3041 11.084 12.4027 10.9682C12.5143 10.8372 12.5763 10.6613 12.7002 10.3095L15.5786 2.13683Z" 
  />
</svg>
