<svg 
  width="36" 
  height="36" 
  viewBox="0 0 36 36" 
  fill="none" 
  xmlns="http://www.w3.org/2000/svg"
>
  <path 
    stroke="currentColor" 
    stroke-width="3" 
    stroke-linecap="round" 
    stroke-linejoin="round"
    d="M16.6622 4.13683C17.0721 2.9006 17.2769 2.28251 17.58 2.1112C17.8422 1.96293 18.1578 1.96293 18.4202 2.1112C18.7231 2.28251 18.9279 2.9006 19.3377 4.13683L22.0469 12.3095C22.1636 12.6613 22.2218 12.8372 22.327 12.9682C22.4197 13.084 22.5382 13.1742 22.6718 13.231C22.823 13.2953 23.0006 13.2991 23.3557 13.3067L31.6052 13.483C32.8531 13.5096 33.477 13.523 33.7261 13.7722C33.9415 13.9879 34.0391 14.3028 33.9856 14.6101C33.924 14.9653 33.4267 15.3605 32.4321 16.1513L25.8569 21.3784C25.5738 21.6036 25.4324 21.7161 25.346 21.8613C25.2697 21.9897 25.2245 22.1356 25.2142 22.2864C25.2027 22.4572 25.2541 22.6354 25.3569 22.992L27.7464 31.2736C28.1077 32.5263 28.2885 33.1527 28.1394 33.4779C28.0103 33.7596 27.7549 33.9541 27.4596 33.9959C27.1184 34.044 26.6063 33.6703 25.5818 32.9227L18.8089 27.9807C18.5174 27.768 18.3717 27.6616 18.2132 27.6202C18.0732 27.5838 17.9268 27.5838 17.7869 27.6202C17.6285 27.6616 17.4826 27.768 17.191 27.9807L10.4183 32.9227C9.39383 33.6703 8.88159 34.044 8.54045 33.9959C8.24521 33.9541 7.98974 33.7596 7.8607 33.4779C7.7116 33.1527 7.89232 32.5263 8.25374 31.2736L10.6431 22.992C10.7459 22.6354 10.7974 22.4572 10.7858 22.2864C10.7756 22.1356 10.7304 21.9897 10.6541 21.8613C10.5677 21.7161 10.4262 21.6036 10.1431 21.3784L3.56798 16.1513C2.5734 15.3605 2.07611 14.9653 2.01437 14.6101C1.96093 14.3028 2.05851 13.9879 2.27401 13.7722C2.523 13.523 3.14692 13.5096 4.39475 13.483L12.6442 13.3067C12.9994 13.2991 13.177 13.2953 13.3282 13.231C13.4619 13.1742 13.5803 13.084 13.6731 12.9682C13.7782 12.8372 13.8365 12.6613 13.9531 12.3095L16.6622 4.13683Z" />
</svg>
