<svg 
  width="32" 
  height="36" 
  viewBox="0 0 32 36" 
  fill="none" 
  xmlns="http://www.w3.org/2000/svg"
>
  <path 
    stroke="#E12424" 
    stroke-width="3" 
    stroke-linecap="round" 
    stroke-linejoin="round"
    d="M26.5 7.33333L25.0984 28.6896C24.9758 30.56 24.9143 31.4953 24.5167 32.2044C24.1665 32.8288 23.6384 33.3307 23.0019 33.6441C22.279 34 21.3562 34 19.5108 34H12.4891C10.6437 34 9.72103 34 8.99806 33.6441C8.36155 33.3307 7.83343 32.8288 7.48331 32.2044C7.08562 31.4953 7.02425 30.56 6.9015 28.6896L5.5 7.33333M2 7.33333H30M23 7.33333L22.5264 5.8899C22.0674 4.49111 21.8378 3.79172 21.4122 3.27463C21.0363 2.81801 20.5537 2.46457 20.0084 2.24672C19.3908 2 18.6652 2 17.2138 2H14.7862C13.3348 2 12.6092 2 11.9916 2.24672C11.4464 2.46457 10.9636 2.81801 10.5878 3.27463C10.1621 3.79172 9.93261 4.49111 9.47362 5.8899L9 7.33333M19.5 14.4444V26.8889M12.5 14.4444V26.8889" 
  />
</svg>
